<svg xmlns="http://www.w3.org/2000/svg" width="54" height="54" viewBox="0 0 54 54">
  <g id="Group_8328" data-name="Group 8328" transform="translate(-932 -2001)">
    <circle id="Ellipse_106" data-name="Ellipse 106" cx="27" cy="27" r="27" transform="translate(932 2001)" fill="#fff"/>
    <g id="Group_8327" data-name="Group 8327" transform="translate(51.094 147.133)">
      <path id="Path_7948" data-name="Path 7948" d="M47.579,0H44.741l-.82,2.523h3.213l3.322,10.224-7.434,5.4v3.118l9.277-6.74a1.91,1.91,0,0,0,.694-2.135L49.4,1.32A1.91,1.91,0,0,0,47.579,0" transform="translate(865.259 1869.867)" fill="#CA2942"/>
      <path id="Path_7949" data-name="Path 7949" d="M7.873,11.656l-.007,0L11.653,0H5.507A1.91,1.91,0,0,0,3.69,1.32L.093,12.391a1.91,1.91,0,0,0,.694,2.135l9.277,6.74V18.148L6.585,15.62ZM2.63,12.746,5.952,2.523H8.185L4.436,14.059Z" transform="translate(897.467 1869.867)" fill="#CA2942"/>
    </g>
  </g>
</svg>
